<svg width="73" height="31" viewBox="0 0 73 31" fill="none" xmlns="http://www.w3.org/2000/svg">
<path d="M25.6913 12.8555V17.1415C25.2706 14.1533 22.9354 11.3549 20.9162 9.43838C18.969 7.5913 16.978 6.23099 16.2012 5.72412C16.4947 5.83964 16.7859 5.95516 17.0795 6.07069C19.5831 7.27884 25.0607 10.1951 25.6913 12.8555Z" fill="#1C9EC1"/>
<path d="M16.142 4.93303C16.7726 3.90995 16.9316 3.03412 16.6158 2.32564C16.1608 1.30256 14.856 0.914694 14.2266 0.782715H16.0842C16.8505 0.782715 17.0921 1.02673 17.1368 1.78823C17.2087 2.98103 16.874 4.02658 16.142 4.93303Z" fill="#1C9EC1"/>
<path d="M25.6897 17.1415C25.6897 17.1415 25.6897 17.1415 25.6897 17.1426V18.3638C25.6897 22.5755 25.6897 26.7884 25.6885 31H0.779297V1.34985C0.779297 0.806426 0.802876 0.781738 1.35335 0.781738C5.52724 0.781738 9.70113 0.781738 13.8751 0.782925H14.2276C14.857 0.914905 16.1618 1.30277 16.6168 2.32585C16.9326 3.03433 16.7736 3.91016 16.143 4.93324C16.0805 5.01221 16.0133 5.08999 15.9437 5.16666C15.8943 5.22086 15.8542 5.26809 15.8247 5.30813C15.7352 5.42713 15.7328 5.49202 15.8283 5.55801C15.88 5.59338 15.9638 5.62993 16.0781 5.6759C16.1183 5.69236 16.1594 5.70771 16.1995 5.72417C16.9762 6.23104 18.9672 7.59135 20.9145 9.43843C22.9338 11.3551 25.2689 14.1534 25.6897 17.1415Z" fill="#3BADD4"/>
<path d="M6.61178 12.4337C8.03088 12.4783 8.82656 12.5005 8.99905 12.5005C9.1827 12.5005 9.98122 12.4783 11.3947 12.4337L11.4616 12.4921V12.9094L11.3947 12.9678C11.0108 12.9791 10.7144 12.9958 10.5057 13.0179C10.2971 13.0402 10.1454 13.0819 10.0508 13.1431C9.95622 13.2044 9.89355 13.3476 9.86301 13.573C9.83231 13.7984 9.81711 14.1114 9.81711 14.5121L9.80042 16.432V17.6006C11.0192 17.634 12.1738 17.6507 13.2645 17.6507C14.7558 17.6507 15.891 17.634 16.6702 17.6006V16.432L16.6535 14.8042C16.6478 14.1698 16.6312 13.7607 16.6034 13.5772C16.5754 13.3935 16.5366 13.2711 16.4865 13.2098C16.4364 13.1486 16.3363 13.0986 16.186 13.0596C16.0358 13.0207 15.6629 12.9902 15.0674 12.9678L15.0089 12.9094V12.4921L15.0674 12.4336C16.4919 12.4782 17.2906 12.5005 17.4631 12.5005C17.6523 12.5005 18.4509 12.4782 19.8588 12.4336L19.9256 12.4921V12.9094L19.8588 12.9678C19.4691 12.979 19.1701 12.9957 18.9614 13.0178C18.7527 13.0402 18.601 13.0819 18.5064 13.143C18.4118 13.2043 18.3505 13.3475 18.3228 13.5729C18.295 13.7983 18.2783 14.1113 18.2727 14.512L18.2561 16.4319V20.2967L18.2727 21.9244C18.2783 22.5534 18.295 22.9595 18.3228 23.1431C18.3506 23.3267 18.3909 23.4492 18.4438 23.5105C18.4967 23.5716 18.5969 23.6231 18.7443 23.6648C18.8917 23.7065 19.2632 23.7387 19.8588 23.7608L19.9256 23.8109V24.2283L19.8588 24.2951C18.4342 24.2505 17.6355 24.2283 17.4631 24.2283C17.2849 24.2283 16.4864 24.2504 15.0674 24.2951L15.0089 24.2283V23.8109L15.0674 23.7608C15.5904 23.7387 15.9383 23.7107 16.1109 23.6773C16.2832 23.6439 16.3974 23.6009 16.4531 23.548C16.5086 23.4951 16.5561 23.3824 16.595 23.2099C16.6338 23.0375 16.6535 22.6535 16.6535 22.0579L16.6702 20.2967V18.3935C15.0228 18.3601 13.8682 18.3434 13.2061 18.3434C12.527 18.3434 11.3918 18.3601 9.80034 18.3935V20.2967L9.80865 21.9243C9.81411 22.5533 9.8308 22.9594 9.85873 23.143C9.88659 23.3267 9.92678 23.4491 9.97979 23.5104C10.0326 23.5715 10.1342 23.6231 10.2845 23.6648C10.4348 23.7065 10.8047 23.7387 11.3946 23.7607L11.4615 23.8108V24.2282L11.3946 24.295C9.9756 24.2504 9.17708 24.2282 8.99897 24.2282C8.8264 24.2282 8.03072 24.2504 6.6117 24.295L6.54492 24.2282V23.8108L6.6117 23.7607C7.12926 23.7387 7.47416 23.7106 7.64681 23.6773C7.81914 23.6439 7.93474 23.6008 7.99314 23.5479C8.05153 23.495 8.09877 23.3824 8.13509 23.2098C8.17117 23.0375 8.19206 22.6535 8.19767 22.0578L8.20606 20.2966V16.4318L8.18937 14.804C8.18375 14.1696 8.16856 13.7605 8.14347 13.5769C8.11847 13.3933 8.07938 13.2709 8.02653 13.2096C7.97359 13.1484 7.87208 13.0983 7.7219 13.0594C7.57164 13.0205 7.20142 12.9899 6.6117 12.9675L6.54492 12.9091V12.4918L6.61178 12.4337Z" fill="white"/>
<path d="M41.6732 13.5719V21.1684H40.3135V17.8195H36.0058V21.1684H34.6582V13.5719H36.0058V16.7496H40.3135V13.5719H41.6732ZM46.2014 21.2753C45.712 21.2753 45.2668 21.2004 44.8658 21.0506C44.4647 20.8938 44.1197 20.6833 43.831 20.4194C43.5502 20.1555 43.3296 19.8488 43.1692 19.4993C43.0167 19.1498 42.9405 18.7789 42.9405 18.3865C42.9405 17.9943 43.0167 17.6233 43.1692 17.2738C43.3296 16.9172 43.5502 16.6069 43.831 16.343C44.1197 16.072 44.4647 15.8615 44.8658 15.7118C45.2668 15.5548 45.7161 15.4764 46.2134 15.4764C46.7027 15.4764 47.1439 15.5548 47.537 15.7118C47.938 15.8687 48.279 16.0791 48.5597 16.343C48.8405 16.5998 49.0531 16.9029 49.1975 17.2524C49.3499 17.5948 49.4261 17.955 49.4261 18.333C49.4261 18.4187 49.4221 18.5007 49.4141 18.5791C49.406 18.6505 49.398 18.7111 49.39 18.761H44.3484C44.3724 19.0107 44.4366 19.2354 44.5409 19.4351C44.6532 19.6348 44.7936 19.8095 44.962 19.9594C45.1385 20.102 45.335 20.2126 45.5516 20.291C45.7762 20.3695 46.0088 20.4087 46.2495 20.4087C46.426 20.4087 46.5984 20.3909 46.7669 20.3552C46.9434 20.3124 47.1038 20.2553 47.2482 20.184C47.3926 20.1056 47.5209 20.0128 47.6332 19.9058C47.7455 19.7988 47.8338 19.6811 47.898 19.5528L49.029 19.8416C48.8124 20.2625 48.4514 20.6084 47.9461 20.8795C47.4488 21.1434 46.8671 21.2753 46.2014 21.2753ZM48.1145 17.9479C48.0905 17.7125 48.0223 17.495 47.91 17.2952C47.8057 17.0955 47.6693 16.9279 47.5009 16.7924C47.3324 16.6497 47.1359 16.5392 46.9113 16.4607C46.6867 16.3822 46.4501 16.343 46.2014 16.343C45.9527 16.343 45.7161 16.3822 45.4914 16.4607C45.2749 16.5392 45.0823 16.6497 44.9139 16.7924C44.7454 16.9279 44.6091 17.0955 44.5048 17.2952C44.4005 17.495 44.3363 17.7125 44.3123 17.9479H48.1145ZM50.5178 13.3579H51.8414V19.5528C51.8414 19.7596 51.9015 19.9237 52.0218 20.0449C52.1422 20.1591 52.3106 20.2161 52.5272 20.2161C52.6154 20.2161 52.7157 20.2019 52.828 20.1733C52.9484 20.1448 53.0606 20.1127 53.1649 20.077L53.3575 20.9972C53.1649 21.0757 52.9363 21.1362 52.6716 21.179C52.4069 21.229 52.1702 21.2539 51.9617 21.2539C51.5044 21.2539 51.1475 21.1434 50.8908 20.9223C50.6421 20.7012 50.5178 20.3873 50.5178 19.9807V13.3579ZM57.6986 21.2753C57.1932 21.2753 56.748 21.1684 56.3629 20.9544C55.9779 20.7404 55.6731 20.4622 55.4485 20.1198V23.4473H54.1249V15.5727H55.2921V16.5784C55.5327 16.2431 55.8416 15.9757 56.2186 15.7759C56.6036 15.5762 57.0368 15.4764 57.5181 15.4764C57.9512 15.4764 58.3483 15.5548 58.7093 15.7118C59.0703 15.8687 59.3831 16.0791 59.6478 16.343C59.9125 16.6069 60.1171 16.9136 60.2615 17.2631C60.4139 17.6126 60.4901 17.98 60.4901 18.3651C60.4901 18.7717 60.4219 19.1533 60.2856 19.51C60.1492 19.8595 59.9567 20.1662 59.708 20.4301C59.4593 20.6869 59.1625 20.8938 58.8176 21.0506C58.4807 21.2004 58.1077 21.2753 57.6986 21.2753ZM57.2654 20.2696C57.5461 20.2696 57.7988 20.2161 58.0234 20.1091C58.256 20.0021 58.4526 19.8595 58.613 19.6811C58.7815 19.5028 58.9099 19.2996 58.9981 19.0713C59.0863 18.843 59.1304 18.6077 59.1304 18.3651C59.1304 18.1084 59.0783 17.8659 58.974 17.6376C58.8777 17.4094 58.7414 17.2096 58.5649 17.0385C58.3964 16.8673 58.1919 16.7317 57.9512 16.6319C57.7106 16.532 57.4499 16.4821 57.1691 16.4821C57.0007 16.4821 56.8242 16.5106 56.6397 16.5677C56.4552 16.6248 56.2827 16.7032 56.1223 16.8031C55.9619 16.9029 55.8215 17.0206 55.7012 17.1562C55.5808 17.2845 55.4966 17.4272 55.4485 17.5841V19.0499C55.5287 19.2211 55.633 19.3816 55.7613 19.5314C55.8897 19.6811 56.03 19.8095 56.1825 19.9166C56.3429 20.0235 56.5154 20.1091 56.6999 20.1733C56.8843 20.2375 57.0729 20.2696 57.2654 20.2696ZM65.2541 21.2753C64.7488 21.2753 64.3036 21.1684 63.9185 20.9544C63.5335 20.7404 63.2287 20.4622 63.004 20.1198V23.4473H61.6805V15.5727H62.8476V16.5784C63.0883 16.2431 63.3971 15.9757 63.7741 15.7759C64.1592 15.5762 64.5923 15.4764 65.0736 15.4764C65.5068 15.4764 65.9039 15.5548 66.2649 15.7118C66.6258 15.8687 66.9387 16.0791 67.2034 16.343C67.4681 16.6069 67.6727 16.9136 67.8171 17.2631C67.9695 17.6126 68.0457 17.98 68.0457 18.3651C68.0457 18.7717 67.9775 19.1533 67.8411 19.51C67.7048 19.8595 67.5123 20.1662 67.2636 20.4301C67.0149 20.6869 66.7181 20.8938 66.3732 21.0506C66.0362 21.2004 65.6632 21.2753 65.2541 21.2753ZM64.821 20.2696C65.1018 20.2696 65.3544 20.2161 65.579 20.1091C65.8117 20.0021 66.0082 19.8595 66.1686 19.6811C66.3371 19.5028 66.4654 19.2996 66.5536 19.0713C66.6419 18.843 66.686 18.6077 66.686 18.3651C66.686 18.1084 66.6339 17.8659 66.5296 17.6376C66.4333 17.4094 66.297 17.2096 66.1205 17.0385C65.952 16.8673 65.7475 16.7317 65.5068 16.6319C65.2662 16.532 65.0055 16.4821 64.7247 16.4821C64.5562 16.4821 64.3798 16.5106 64.1953 16.5677C64.0108 16.6248 63.8383 16.7032 63.6779 16.8031C63.5175 16.9029 63.3771 17.0206 63.2567 17.1562C63.1364 17.2845 63.0522 17.4272 63.004 17.5841V19.0499C63.0843 19.2211 63.1886 19.3816 63.3169 19.5314C63.4453 19.6811 63.5857 19.8095 63.738 19.9166C63.8985 20.0235 64.0709 20.1091 64.2554 20.1733C64.44 20.2375 64.6284 20.2696 64.821 20.2696ZM72.7737 16.5891C72.2603 16.6034 71.803 16.7103 71.4019 16.9101C71.0089 17.1027 70.7281 17.3808 70.5597 17.7446V21.1684H69.2361V15.5727H70.4634V16.8245C70.68 16.4393 70.9607 16.1326 71.3057 15.9043C71.6586 15.669 72.0356 15.5406 72.4367 15.5192C72.5169 15.5192 72.5811 15.5192 72.6293 15.5192C72.6854 15.5192 72.7335 15.5227 72.7737 15.5299V16.5891Z" fill="#3BADD4"/>
</svg>
